<?xml version="1.0" encoding="utf-8"?>
<!-- Generator: Adobe Illustrator 22.1.0, SVG Export Plug-In . SVG Version: 6.00 Build 0)  -->
<svg version="1.1" id="Layer_1" xmlns="http://www.w3.org/2000/svg" xmlns:xlink="http://www.w3.org/1999/xlink" x="0px" y="0px"
	 viewBox="0 0 150 150" style="enable-background:new 0 0 150 150;" xml:space="preserve">
<style type="text/css">
	.st0{fill:#FFFFFF;}
</style>
<path class="st0" d="M132.3,127.5c-6.5,0-10.1-2.2-12.7-3.7c-2.2-1.3-3.5-2.1-6.7-2.1c-3.3,0-4.5,0.8-6.7,2.1
	c-2.7,1.6-6.2,3.7-12.7,3.7s-10.1-2.2-12.7-3.7c-2.2-1.3-3.5-2.1-6.7-2.1c-3.3,0-4.5,0.8-6.7,2.1c-2.7,1.6-6.3,3.7-12.8,3.7
	s-10.1-2.2-12.7-3.7c-2.2-1.3-3.5-2.1-6.7-2.1s-4.5,0.8-6.7,2.1c-2.7,1.6-6.3,3.7-12.8,3.7v-11.7c3.3,0,4.5-0.8,6.7-2.1
	c2.7-1.6,6.3-3.7,12.8-3.7s10.1,2.2,12.7,3.7c2.2,1.3,3.4,2.1,6.7,2.1s4.5-0.8,6.7-2.1c2.7-1.6,6.3-3.7,12.8-3.7s10.1,2.2,12.7,3.7
	c2.2,1.3,3.5,2.1,6.7,2.1s4.5-0.8,6.7-2.1c2.6-1.6,6.2-3.7,12.7-3.7s10.1,2.2,12.7,3.7c2.2,1.3,3.4,2.1,6.7,2.1
	C132.3,115.9,132.3,127.5,132.3,127.5z M132.3,101.3c-6.5,0-10.1-2.2-12.7-3.7c-2.2-1.3-3.5-2.1-6.7-2.1c-3.3,0-4.5,0.8-6.7,2.1
	c-2.6,1.6-6.2,3.7-12.7,3.7s-10.1-2.2-12.7-3.7c-2.2-1.3-3.5-2.1-6.7-2.1c-3.3,0-4.5,0.8-6.7,2.1c-2.6,1.6-6.2,3.7-12.7,3.7
	S44.6,99.1,42,97.6c-2.2-1.3-3.5-2.1-6.7-2.1s-4.5,0.8-6.7,2.1c-2.7,1.6-6.4,3.7-12.8,3.7V89.6c3.3,0,4.5-0.8,6.7-2.1
	c2.6-1.6,6.2-3.7,12.7-3.7s10.1,2.2,12.7,3.7c2.2,1.3,3.5,2.1,6.7,2.1c3.3,0,4.5-0.8,6.7-2.1c2.6-1.6,6.2-3.7,12.7-3.7
	s10.1,2.2,12.7,3.7c2.2,1.3,3.5,2.1,6.7,2.1s4.5-0.8,6.7-2.1c2.6-1.6,6.2-3.7,12.7-3.7s10.1,2.2,12.7,3.7c2.2,1.3,3.5,2.1,6.7,2.1
	v11.7C132.2,101.3,132.3,101.3,132.3,101.3z M54.7,75.1c3.3,0,4.5-0.8,6.7-2.1c2.7-1.6,6.3-3.7,12.8-3.7s10.1,2.2,12.7,3.7
	c2.2,1.3,3.5,2.1,6.7,2.1s4.5-0.8,6.7-2.1c0.7-0.4,1.5-0.9,2.4-1.3L65.2,34.3c-9-9-17.4-11.7-31.9-11.7v14.6
	c10.6-0.1,16.8,2.3,23.3,8.7l5.8,5.8l-18.9,19c1.8,0.7,3.3,1.6,4.5,2.3C50.1,74.3,51.4,75.1,54.7,75.1z"/>
<circle class="st0" cx="100.3" cy="37.2" r="14.6"/>
</svg>
