<svg xmlns="http://www.w3.org/2000/svg" viewBox="0 0 72 72"><defs><style>.cls-1{fill:#3262b5;}.cls-2{fill:#448aff;}.cls-3{fill:#fff;}.cls-4{fill:#6bf;}</style></defs><title>Artboard 27</title><g id="circle_container" data-name="circle container"><g id="Mask"><g id="path-1"><circle class="cls-1" cx="36" cy="36" r="31"/></g></g></g><g id="artwork"><circle class="cls-2" cx="34.77402" cy="56.988" r="3.39164"/><circle class="cls-3" cx="21.16104" cy="51.34932" r="2.54373"/><circle class="cls-2" cx="15.52235" cy="37.73633" r="3.39164"/><circle class="cls-3" cx="48.38701" cy="51.34932" r="4.52219"/><circle class="cls-3" cx="21.16104" cy="24.12334" r="4.52219"/><path class="cls-4" d="M59.76471,28.72076l-2.8468-2.8468,2.8468-2.8468a7.63113,7.63113,0,0,0-10.79205-10.792l-2.84681,2.8468-.00494.00494L43.2691,12.23511a7.62785,7.62785,0,0,0-10.78216,10.792l2.8468,2.8468-2.8468,2.8468A7.63118,7.63118,0,1,0,43.27905,39.51288l2.8468-2.8468,2.84681,2.8468A7.63116,7.63116,0,0,0,59.76471,28.72076ZM46.12585,20.81519A5.05878,5.05878,0,1,1,41.067,25.874,5.05877,5.05877,0,0,1,46.12585,20.81519Zm4.9596-6.47724a4.662,4.662,0,0,1,6.57642,6.57642l-2.84681,2.8468-6.59631-6.57642ZM34.58984,20.91437A4.662,4.662,0,0,1,41.16626,14.338L44.018,17.18976l-6.589,6.589ZM41.16626,37.41a4.662,4.662,0,0,1-6.57642-6.57641l2.84681-2.8468L44.0329,34.583Zm16.49561,0a4.662,4.662,0,0,1-6.59626,0l-2.84186-2.84179,6.595-6.5951,2.84308,2.86048A4.66209,4.66209,0,0,1,57.66187,37.41Z"/></g></svg>