<svg xmlns="http://www.w3.org/2000/svg" viewBox="0 0 72 72"><defs><style>.cls-1{fill:#3262b5;}.cls-2{fill:#6bf;}.cls-3{fill:#448aff;}</style></defs><title>Artboard 17</title><g id="circle_container" data-name="circle container"><g id="Mask"><g id="path-1"><circle class="cls-1" cx="36" cy="36" r="31"/></g></g></g><g id="artwork"><g id="Page-1"><g id="Icon_MachineLearning_24px" data-name="Icon MachineLearning 24px"><g id="Machine-Learning"><g id="Shape"><polygon class="cls-2" points="46.34 42.395 48.386 38.787 55.846 38.787 57.427 36 52.685 27.638 44.935 27.638 42.788 23.866 40.592 23.866 40.592 21.243 44.273 21.243 46.421 25.014 51.197 25.014 46.548 16.815 37.369 16.815 37.369 27.801 41.061 27.801 42.565 30.425 37.369 30.425 37.369 35.836 42.264 35.836 44.498 31.901 50.413 31.901 51.901 34.524 45.985 34.524 43.752 38.46 37.369 38.46 37.369 48.626 45.328 48.626 43.839 51.249 37.369 51.249 37.369 55.185 46.548 55.185 54.359 41.411 49.874 41.411 47.828 45.018 40.592 45.018 40.592 42.395 46.34 42.395"/></g><g id="Shape-2" data-name="Shape"><polygon class="cls-3" points="25.66 42.395 23.614 38.787 16.154 38.787 14.573 36 19.315 27.638 27.065 27.638 29.212 23.866 31.408 23.866 31.408 21.243 27.727 21.243 25.579 25.014 20.803 25.014 25.452 16.815 34.631 16.815 34.631 27.801 30.939 27.801 29.435 30.425 34.631 30.425 34.631 35.836 29.736 35.836 27.502 31.901 21.587 31.901 20.099 34.524 26.015 34.524 28.248 38.46 34.631 38.46 34.631 48.626 26.672 48.626 28.161 51.249 34.631 51.249 34.631 55.185 25.452 55.185 17.641 41.411 22.126 41.411 24.172 45.018 31.408 45.018 31.408 42.395 25.66 42.395"/></g></g></g></g></g></svg>