<svg xmlns="http://www.w3.org/2000/svg" viewBox="0 0 72 72"><defs><style>.cls-1{fill:#3262b5;}.cls-2{fill:#6bf;}.cls-3{fill:#fff;}</style></defs><title>Artboard 26</title><g id="circle_container" data-name="circle container"><g id="Mask"><g id="path-1"><circle class="cls-1" cx="36" cy="36" r="31"/></g></g></g><g id="artwork"><path class="cls-2" d="M49.00438,26.65471a13.25812,13.25812,0,0,0-24.76225-3.5362A10.60889,10.60889,0,0,0,25.3914,44.27382H48.3767a8.82,8.82,0,0,0,.62768-17.61911Z"/><path class="cls-3" d="M30.78,50.7958a2.61,2.61,0,1,0,2.61,2.61A2.59817,2.59817,0,0,0,30.78,50.7958Zm-7.83-20.87989v2.61h2.61l4.69145,9.89837-1.76174,3.19724A2.65311,2.65311,0,0,0,28.17,46.88082a2.60927,2.60927,0,0,0,2.61,2.61H46.44v-2.61H31.33465a.32307.32307,0,0,1-.32625-.32624.31.31,0,0,1,.03915-.1566l1.168-2.12714h9.7222a2.61845,2.61845,0,0,0,2.28374-1.34415l4.66535-8.4694a1.26159,1.26159,0,0,0,.16313-.6264,1.30463,1.30463,0,0,0-1.305-1.305H28.45061l-1.23974-2.61ZM43.83,50.7958a2.61,2.61,0,1,0,2.61,2.61A2.59817,2.59817,0,0,0,43.83,50.7958Z"/></g></svg>