<svg xmlns="http://www.w3.org/2000/svg" xmlns:xlink="http://www.w3.org/1999/xlink" viewBox="0 0 72 72"><defs><style>.cls-1{fill:#fff;}.cls-2{fill:none;}.cls-3{fill:#3262b5;}.cls-4{clip-path:url(#clip-path);}.cls-5{fill:#6bf;}.cls-6{mask:url(#mask);}</style><clipPath id="clip-path"><circle class="cls-2" cx="36" cy="36" r="31"/></clipPath><mask id="mask" x="18.87919" y="-41.295" width="83.39609" height="83.39609" maskUnits="userSpaceOnUse"><g id="mask-4"><circle id="path-3" class="cls-1" cx="60.57724" cy="0.40305" r="41.69805"/></g></mask></defs><title>Artboard 23 copy</title><g id="artwork"><g id="Mask-2" data-name="Mask"><g id="path-1"><circle class="cls-3" cx="36" cy="36" r="31"/></g></g><g class="cls-4"><path class="cls-5" d="M24.37577,22.47475H17.73253a3.1739,3.1739,0,0,0-3.17478,3.17478V47.873a3.17391,3.17391,0,0,0,3.17478,3.17478H39.956A3.17391,3.17391,0,0,0,43.1308,47.873V25.64953A3.17391,3.17391,0,0,0,39.956,22.47475H24.37577Z"/><circle class="cls-1" cx="28.84427" cy="31.62774" r="5.13354"/><path class="cls-1" d="M39.11135,47.02835H18.5772V44.6327c0-3.42236,6.84472-5.30466,10.26707-5.30466s10.26708,1.8823,10.26708,5.30466Z"/><g id="Symbols"><g id="Solution-Icon_Mobile-Apps" data-name="Solution-Icon Mobile-Apps"><g id="Icon_Mobile-Applications" data-name="Icon Mobile-Applications"><g class="cls-6"><g id="mobile"><g id="Group-28"><g id="Rectangle-14"><rect class="cls-5" x="47.94839" y="22.35162" width="22.37201" height="5.32619"/></g><g id="Rectangle-14-2" data-name="Rectangle-14"><rect class="cls-5" x="62.53584" y="30.11705" width="16.20675" height="5.32619"/></g><g id="Rectangle-14-3" data-name="Rectangle-14"><rect class="cls-5" x="47.94839" y="30.11705" width="12.11001" height="5.32619"/></g></g></g></g></g></g></g><g id="Rectangle-14-4" data-name="Rectangle-14"><rect class="cls-1" x="47.94839" y="41.48046" width="9.38563" height="5.32619"/></g></g></g></svg>