<svg xmlns="http://www.w3.org/2000/svg" xmlns:xlink="http://www.w3.org/1999/xlink" viewBox="0 0 72 72"><defs><style>.cls-1{fill:#fff;}.cls-2{fill:#3262b5;}.cls-3{mask:url(#mask);}.cls-4{fill:#6bf;}.cls-5{fill:#448aff;}</style><mask id="mask" x="5.00025" y="5" width="62" height="75.53089" maskUnits="userSpaceOnUse"><g id="mask-4"><circle id="path-3" class="cls-1" cx="36.00025" cy="36" r="31"/></g></mask></defs><title>Artboard 7</title><g id="circle_container" data-name="circle container"><g id="Mask-2" data-name="Mask"><g id="path-1"><circle class="cls-2" cx="36" cy="36" r="31"/></g></g></g><g id="artwork"><g id="Symbols"><g id="Solution-Icon_Mobile-Apps" data-name="Solution-Icon Mobile-Apps"><g id="Icon_Mobile-Applications" data-name="Icon Mobile-Applications"><g class="cls-3"><g id="mobile"><g id="Group-28"><g id="Fill-24"><path class="cls-4" d="M47.95744,80.53089H24.38456a4.92174,4.92174,0,0,1-4.73363-4.921V22.20157c0-2.31,1.87471-3.80373,4.40634-3.80373H47.63015c2.71129,0,5.25074,1.627,5.25074,4.16877V75.97568c0,2.23375-2.40275,4.55521-4.92345,4.55521Z"/></g><g id="Rectangle-15"><rect class="cls-5" x="21.65608" y="25.91941" width="29.21418" height="46.19656"/></g><g id="Rectangle-14"><rect class="cls-4" x="26.61146" y="52.31745" width="12.16503" height="3.95971"/></g><g id="Rectangle-14-2" data-name="Rectangle-14"><rect class="cls-4" x="40.12816" y="52.31745" width="6.75835" height="3.95971"/></g><g id="Rectangle-14-3" data-name="Rectangle-14"><rect class="cls-4" x="34.72148" y="57.59705" width="12.16503" height="3.95971"/></g><g id="Rectangle-14-4" data-name="Rectangle-14"><rect class="cls-4" x="26.61146" y="57.59705" width="6.75835" height="3.95971"/></g><g id="Rectangle-13"><path class="cls-4" d="M34.26729,21.95971h3.99177a.66.66,0,0,1,.66.65995h0a.66.66,0,0,1-.66.66H34.26729a.66.66,0,0,1-.66-.66h0A.66.66,0,0,1,34.26729,21.95971Z"/></g><g id="Oval-5"><circle class="cls-1" cx="36.12359" cy="39.01851" r="5.5"/></g></g></g></g></g></g></g></g></svg>