<svg xmlns="http://www.w3.org/2000/svg" xmlns:xlink="http://www.w3.org/1999/xlink" viewBox="0 0 72 72"><defs><style>.cls-1{fill:#fff;}.cls-2{fill:#3262b5;}.cls-3{mask:url(#mask);}.cls-4{fill:#448aff;}.cls-5{fill:#6bf;}</style><mask id="mask" x="5" y="5" width="62" height="67.65451" maskUnits="userSpaceOnUse"><g id="mask-2"><circle id="path-1" class="cls-1" cx="36" cy="36" r="31"/></g></mask></defs><title>Artboard 9</title><g id="circle_container" data-name="circle container"><g id="Mask-2-2" data-name="Mask"><g id="path-1-2" data-name="path-1"><circle class="cls-2" cx="36" cy="36" r="31"/></g></g></g><g id="artwork"><g id="Symbols"><g id="Solution-Icon_Backup_Archive" data-name="Solution-Icon_Backup+Archive"><g id="Icon_Backup-Archives" data-name="Icon Backup-Archives"><g id="Page-1"><g id="Group-7"><g class="cls-3"><g id="Group-31"><g id="Fill-1"><polygon class="cls-4" points="5 46.439 43.589 46.439 43.589 22 5 22 5 46.439"/></g><g id="Fill-2"><polygon class="cls-4" points="18.036 28.388 30.986 28.388 30.986 22 18.036 22 18.036 28.388"/></g><g id="Fill-3"><polygon class="cls-4" points="5 23.107 43.589 23.107 43.589 22 5 22 5 23.107"/></g><g id="Fill-4"><polygon class="cls-1" points="18.036 27.111 30.986 27.111 30.986 25.111 18.036 25.111 18.036 27.111"/></g><g id="Fill-5"><polygon class="cls-4" points="5 72.655 43.589 72.655 43.589 48.216 5 48.216 5 72.655"/></g><g id="Fill-6"><polygon class="cls-4" points="18.036 54.604 30.986 54.604 30.986 48.216 18.036 48.216 18.036 54.604"/></g><g id="Fill-7"><polygon class="cls-4" points="5 49.323 43.589 49.323 43.589 48.216 5 48.216 5 49.323"/></g><g id="Fill-8"><polygon class="cls-1" points="18.036 53.327 30.986 53.327 30.986 51.327 18.036 51.327 18.036 53.327"/></g></g></g></g><g id="Group-16"><g id="Group-11"><g id="Group-30"><g id="Fill-9"><path class="cls-5" d="M65.96174,66.99419H35.03826A1.05151,1.05151,0,0,1,34,65.92935V55.06484A1.05185,1.05185,0,0,1,35.03826,54H65.96174A1.05185,1.05185,0,0,1,67,55.06484V65.92935a1.05151,1.05151,0,0,1-1.03826,1.06484"/></g><g id="Fill-12"><path class="cls-4" d="M57.62526,61.21388a1.38881,1.38881,0,1,1-1.38907-1.38907,1.389,1.389,0,0,1,1.38907,1.38907"/></g><g id="Fill-14"><path class="cls-4" d="M63.22619,61.21388a1.38881,1.38881,0,1,1-1.38908-1.38907,1.389,1.389,0,0,1,1.38908,1.38907"/></g></g></g></g></g></g></g></g></g></svg>