<svg xmlns="http://www.w3.org/2000/svg" viewBox="0 0 72 72"><defs><style>.cls-1{fill:#3262b5;}.cls-2{fill:#448aff;}.cls-3{fill:#fff;}.cls-4{fill:#6bf;}</style></defs><title>Artboard 22</title><g id="circle_container" data-name="circle container"><g id="Mask"><g id="path-1"><circle class="cls-1" cx="36" cy="36" r="31"/></g></g></g><g id="artwork"><polygon class="cls-2" points="33.396 50.365 19.367 50.365 19.367 47.365 30.396 47.365 30.396 41.854 33.396 41.854 33.396 50.365"/><g id="Fill-4"><path class="cls-3" d="M16.7642,45.71457a.55561.55561,0,0,0-.5545.55291l.00046,5.19524a.55621.55621,0,0,0,.554.55337h5.2059a.5563.5563,0,0,0,.5545-.55337V46.26748a.55561.55561,0,0,0-.554-.55337Z"/></g><polygon class="cls-2" points="52.633 55.728 38.604 55.728 38.604 41.854 41.604 41.854 41.604 52.728 52.633 52.728 52.633 55.728"/><g id="Fill-4-2" data-name="Fill-4"><path class="cls-3" d="M50.02944,51.077a.55561.55561,0,0,0-.554.55336v5.19525a.5563.5563,0,0,0,.5545.55337h5.2059a.55621.55621,0,0,0,.554-.55337l.00046-5.19525a.55561.55561,0,0,0-.5545-.5529Z"/></g><path class="cls-4" d="M49.74118,23.91A14.0093,14.0093,0,0,0,23.576,20.17343a11.21,11.21,0,0,0,1.21438,22.35394H49.078A9.31976,9.31976,0,0,0,49.74118,23.91Z"/><g id="Page-1"><g id="Pricing_list" data-name="Pricing list"><g id="compute"><g id="Fill-4-3" data-name="Fill-4"><path class="cls-3" d="M33.98311,26.87206a.43041.43041,0,0,0-.42954.42831l.00035,4.02447a.43086.43086,0,0,0,.42919.42866h4.03272a.43093.43093,0,0,0,.42954-.42866V27.30037a.4304.4304,0,0,0-.42919-.42866Z"/></g><g id="Fill-5"><path class="cls-3" d="M44.40059,26.54748a.38631.38631,0,0,0,.38535-.38456v-.62658a.38631.38631,0,0,0-.38535-.38456H42.43885v-1.83a.43079.43079,0,0,0-.42919-.42831H40.16848l.00035-1.96514a.38609.38609,0,0,0-.385-.38385l-.62858.00035a.38594.38594,0,0,0-.385.38421l.00036,1.96443H36.69893V20.92832a.38609.38609,0,0,0-.385-.38385l-.62858.00035A.38624.38624,0,0,0,35.3,20.929l.00071,1.96443-2.07169.00035V20.92832a.38609.38609,0,0,0-.385-.38385l-.62857.00035a.38617.38617,0,0,0-.385.38421l.00036,1.96478H29.99a.43033.43033,0,0,0-.42953.428v1.83H27.59871a.38633.38633,0,0,0-.38465.3842l.00036.62765a.38556.38556,0,0,0,.38464.38385h1.96139l.00035,2.06745-1.96209-.00035a.3861.3861,0,0,0-.38465.38421l.00036.62693a.3854.3854,0,0,0,.38464.38421H29.5608v2.0678l-1.96209-.00035a.3861.3861,0,0,0-.38465.38421l.00036.62693a.38563.38563,0,0,0,.38464.38421H29.5608v1.83072a.43055.43055,0,0,0,.42918.4283h1.84084v1.96408a.38608.38608,0,0,0,.38534.38456h.62752a.3857.3857,0,0,0,.38464-.38456l.00071-1.96408H35.3l.00071,1.96408a.38578.38578,0,0,0,.385.38456h.62787a.3857.3857,0,0,0,.38464-.38456l.00071-1.96408h2.07133l.00036,1.96408a.38578.38578,0,0,0,.385.38456h.62752a.38586.38586,0,0,0,.38535-.38456l.00035-1.96408h1.84048a.43055.43055,0,0,0,.42918-.4283l.00036-1.83072,1.96174-.00035a.38548.38548,0,0,0,.38535-.38386v-.62658a.38579.38579,0,0,0-.38535-.38421H42.43885v-2.0678l1.96174-.00035a.38549.38549,0,0,0,.38535-.38386v-.62623a.38609.38609,0,0,0-.38535-.38456H42.43885V26.54748ZM31.00851,34.29336V24.33185l9.98263-.0007-.00106,9.96221Z"/></g></g></g></g></g></svg>